<svg width="210" height="244" viewBox="0 0 210 244" fill="none" xmlns="http://www.w3.org/2000/svg">
<g id="css.svg">
<g id="Group" filter="url(#filter0_d_1_130)">
<g id="Group_2" filter="url(#filter1_d_1_130)">
<path id="Vector" d="M13.0774 17.0774C13.0411 16.6275 13.3964 16.2423 13.8478 16.2423L196.921 16.2394C197.376 16.2394 197.733 16.631 197.691 17.0843L180.249 203.241C180.219 203.56 179.995 203.827 179.686 203.913L106.496 224.218C106.365 224.255 106.226 224.255 106.093 224.221L28.6814 203.912C28.3638 203.829 28.1336 203.554 28.1071 203.227L13.0774 17.0774Z" stroke="#0746E9" stroke-width="2.31858"/>
</g>
<path id="Vector_2" d="M105.001 29.4866L179.511 29.4854L165.576 189.882L104.998 207.973L105.001 29.4866Z" fill="#0746E9" fill-opacity="0.12" stroke="#0746E9" stroke-opacity="0.45" stroke-width="0.772859"/>
<g id="Group_3" filter="url(#filter2_i_1_130)">
<path id="Vector_3" d="M47.7822 48.7819L161.673 48.78L153.19 166.359L105.937 179.625L57.4731 166.361L53.2331 128.977L78.071 128.976L78.0707 147.668L105.937 155.506L130.775 147.667L135.017 118.725L53.2333 118.726L53.2337 95.2104L135.017 95.209L138.652 73.5021L47.7819 69.8858L47.7822 48.7819Z" fill="url(#paint0_linear_1_130)"/>
</g>
</g>
</g>
<defs>
<filter id="filter0_d_1_130" x="8.82397" y="15.0801" width="193.121" height="216.508" filterUnits="userSpaceOnUse" color-interpolation-filters="sRGB">
<feFlood flood-opacity="0" result="BackgroundImageFix"/>
<feColorMatrix in="SourceAlpha" type="matrix" values="0 0 0 0 0 0 0 0 0 0 0 0 0 0 0 0 0 0 127 0" result="hardAlpha"/>
<feOffset dy="3.09143"/>
<feGaussianBlur stdDeviation="1.54572"/>
<feComposite in2="hardAlpha" operator="out"/>
<feColorMatrix type="matrix" values="0 0 0 0 0 0 0 0 0 0 0 0 0 0 0 0 0 0 0.25 0"/>
<feBlend mode="normal" in2="BackgroundImageFix" result="effect1_dropShadow_1_130"/>
<feBlend mode="normal" in="SourceGraphic" in2="effect1_dropShadow_1_130" result="shape"/>
</filter>
<filter id="filter1_d_1_130" x="4.18683" y="8.12436" width="202.396" height="225.783" filterUnits="userSpaceOnUse" color-interpolation-filters="sRGB">
<feFlood flood-opacity="0" result="BackgroundImageFix"/>
<feColorMatrix in="SourceAlpha" type="matrix" values="0 0 0 0 0 0 0 0 0 0 0 0 0 0 0 0 0 0 127 0" result="hardAlpha"/>
<feOffset dy="0.772859"/>
<feGaussianBlur stdDeviation="3.86429"/>
<feColorMatrix type="matrix" values="0 0 0 0 0.0278808 0 0 0 0 0.275562 0 0 0 0 0.912457 0 0 0 1 0"/>
<feBlend mode="normal" in2="BackgroundImageFix" result="effect1_dropShadow_1_130"/>
<feBlend mode="normal" in="SourceGraphic" in2="effect1_dropShadow_1_130" result="shape"/>
</filter>
<filter id="filter2_i_1_130" x="47.7819" y="48.78" width="113.891" height="133.936" filterUnits="userSpaceOnUse" color-interpolation-filters="sRGB">
<feFlood flood-opacity="0" result="BackgroundImageFix"/>
<feBlend mode="normal" in="SourceGraphic" in2="BackgroundImageFix" result="shape"/>
<feColorMatrix in="SourceAlpha" type="matrix" values="0 0 0 0 0 0 0 0 0 0 0 0 0 0 0 0 0 0 127 0" result="hardAlpha"/>
<feOffset dy="3.09143"/>
<feGaussianBlur stdDeviation="1.54572"/>
<feComposite in2="hardAlpha" operator="arithmetic" k2="-1" k3="1"/>
<feColorMatrix type="matrix" values="0 0 0 0 0 0 0 0 0 0 0 0 0 0 0 0 0 0 0.25 0"/>
<feBlend mode="normal" in2="shape" result="effect1_innerShadow_1_130"/>
</filter>
<linearGradient id="paint0_linear_1_130" x1="104.728" y1="48.781" x2="104.73" y2="179.625" gradientUnits="userSpaceOnUse">
<stop stop-color="#0746E9"/>
<stop offset="1" stop-color="#2A5FE7"/>
</linearGradient>
</defs>
</svg>
