<svg width="228" height="174" viewBox="0 0 228 174" fill="none" xmlns="http://www.w3.org/2000/svg">
<g id="sass.svg" clip-path="url(#clip0_1_156)">
<g id="Group" filter="url(#filter0_d_1_156)">
<path id="Vector" fill-rule="evenodd" clip-rule="evenodd" d="M55.7999 66.2987C50.8405 57.8677 54.808 60.3474 58.7756 64.315C62.2471 67.7866 72.8603 73.4403 87.5403 68.2825C94.4835 66.6294 110.255 61.4385 117.793 53.9001C122.587 49.4366 131.878 38.1291 130.687 28.607C130.357 23.9781 125.232 14.9189 107.378 15.7124C99.6083 15.8777 80.7954 17.9937 67.7025 25.1353C59.6021 28.9376 41.4174 38.625 33.4823 46.9569C30.176 50.0979 23.1667 58.562 21.5796 67.2906C20.0918 72.2501 22.0756 85.343 41.9134 98.0392C46.7075 101.511 56.1966 108.553 55.7999 108.95C55.4031 109.347 69.521 101.841 76.6295 98.0392C82.2502 91.5919 94.9795 80.1852 100.931 86.1365C102.749 87.459 105.791 91.7903 103.411 98.5351C105.56 97.0473 110.056 95.5595 110.85 101.511L105.394 124.324V129.284L107.874 126.308L126.224 85.1446L128.208 78.2014C129.034 77.0442 132.87 75.4241 141.598 78.2014L139.119 87.1284C138.788 90.9307 139.019 99.6262 142.59 103.991L154.989 81.1771L157.468 72.2501C160.609 70.9276 167.685 69.076 170.859 72.2501L168.379 82.169C168.214 84.814 168.082 90.2033 168.875 90.6L173.339 100.519C174 99.8577 176.711 98.2376 182.266 97.0473C188.548 96.2207 202.599 95.3611 208.551 98.5351C212.188 100.188 220.057 105.181 222.437 111.926C223.429 114.405 224.619 120.952 221.445 127.3C220.453 129.284 217.18 133.152 212.022 132.755C211.526 132.59 210.832 132.061 212.022 131.267C215.494 129.78 219.362 127.597 218.966 122.836C218.966 119.861 217.875 113.116 213.51 109.942C209.212 105.974 195.755 99.6262 176.314 105.974C177.306 108.619 178.893 114.703 177.306 117.877C175.488 122.34 169.074 131.466 157.964 132.259C154.162 131.598 148.244 127.498 154.989 116.389C157.634 112.918 163.321 105.974 164.908 105.974C162.593 102.337 158.163 93.7741 158.956 88.6162C154.823 95.8901 146.459 110.438 146.062 110.438C145.566 110.438 149.533 117.877 148.046 122.836C147.219 125.977 144.177 132.954 138.623 135.731C134.82 137.88 125.827 141.286 120.273 137.715C119.446 137.054 118.686 134.64 122.256 130.276L135.647 113.909C133.333 109.446 128.803 99.4278 129.2 95.0635C123.744 107.627 111.941 133.747 108.37 137.715C105.89 141.352 99.8397 146.443 95.4754 137.715C94.9795 136.062 94.2852 131.267 95.4754 125.316C93.8223 130.441 89.3257 141.385 84.5646 144.162C81.7543 145.981 75.2409 147.237 71.6701 137.715C69.6863 133.251 66.909 121.15 71.6701 108.454L59.7674 115.397C62.0818 118.869 65.1236 129.68 58.7755 145.154C55.7999 150.94 46.5753 162.909 33.4823 164.496C24.2247 166.149 7.09809 164.397 12.6527 144.162C13.8099 138.872 22.3731 125.415 47.3688 113.909C37.6152 106.966 17.4137 92.2862 14.6364 89.1122C6.37066 82.169 -4.2095 62.6288 19.5959 40.0137C43.4012 17.3986 75.8029 6.1241 89.0281 3.31375C105.89 0.172766 140.21 0.536461 142.59 27.1191C144.971 53.7017 119.115 68.9438 105.89 73.242C99.7736 75.2257 85.5565 77.7055 77.1254 77.2095C68.6944 76.7136 60.7593 74.7298 55.7999 66.2987ZM83.0768 132.259C86.6476 132.259 94.1529 107.462 97.4592 95.0635C96.6656 91.4927 93.161 93.9063 91.5078 95.5595C82.7792 104.288 79.9358 116.389 79.6052 121.349C79.2745 124.986 79.506 132.259 83.0768 132.259ZM127.216 133.747C130.818 129.654 137.987 121.411 138.125 120.866C138.127 120.83 138.127 120.824 138.127 120.853C138.127 120.856 138.126 120.861 138.125 120.866C138.091 121.468 137.504 130.474 127.216 133.747ZM158.956 126.308C159.122 123.167 160.94 115.794 166.891 111.43C168.214 115.232 168.479 123.531 158.956 126.308ZM51.8323 119.861C39.103 126.804 16.3226 143.369 27.035 154.081C37.4499 154.246 56.9901 147.634 51.8323 119.861Z" fill="#CC6699"/>
<path id="Vector_2" d="M138.125 120.866C137.987 121.411 130.818 129.654 127.216 133.747C137.504 130.474 138.091 121.468 138.125 120.866ZM138.125 120.866C138.127 120.83 138.127 120.824 138.127 120.853C138.127 120.856 138.126 120.861 138.125 120.866ZM55.7999 66.2987C50.8405 57.8677 54.808 60.3474 58.7756 64.315C62.2471 67.7866 72.8603 73.4403 87.5403 68.2825C94.4835 66.6294 110.255 61.4385 117.793 53.9001C122.587 49.4366 131.878 38.1291 130.687 28.607C130.357 23.9781 125.232 14.9189 107.378 15.7124C99.6083 15.8777 80.7954 17.9937 67.7025 25.1353C59.6021 28.9376 41.4174 38.625 33.4823 46.9569C30.176 50.0979 23.1667 58.562 21.5796 67.2906C20.0918 72.2501 22.0756 85.343 41.9134 98.0392C46.7075 101.511 56.1966 108.553 55.7999 108.95C55.4031 109.347 69.521 101.841 76.6295 98.0392C82.2502 91.5919 94.9795 80.1852 100.931 86.1365C102.749 87.459 105.791 91.7903 103.411 98.5351C105.56 97.0473 110.056 95.5595 110.85 101.511L105.394 124.324V129.284L107.874 126.308L126.224 85.1446L128.208 78.2014C129.034 77.0442 132.87 75.4241 141.598 78.2014L139.119 87.1284C138.788 90.9307 139.019 99.6262 142.59 103.991L154.989 81.1771L157.468 72.2501C160.609 70.9276 167.685 69.076 170.859 72.2501L168.379 82.169C168.214 84.814 168.082 90.2033 168.875 90.6L173.339 100.519C174 99.8577 176.711 98.2376 182.266 97.0473C188.548 96.2207 202.599 95.3611 208.551 98.5351C212.188 100.188 220.057 105.181 222.437 111.926C223.429 114.405 224.619 120.952 221.445 127.3C220.453 129.284 217.18 133.152 212.022 132.755C211.526 132.59 210.832 132.061 212.022 131.267C215.494 129.78 219.362 127.597 218.966 122.836C218.966 119.861 217.875 113.116 213.51 109.942C209.212 105.974 195.755 99.6262 176.314 105.974C177.306 108.619 178.893 114.703 177.306 117.877C175.488 122.34 169.074 131.466 157.964 132.259C154.162 131.598 148.244 127.498 154.989 116.389C157.634 112.918 163.321 105.974 164.908 105.974C162.593 102.337 158.163 93.7741 158.956 88.6162C154.823 95.8901 146.459 110.438 146.062 110.438C145.566 110.438 149.533 117.877 148.046 122.836C147.219 125.977 144.177 132.954 138.623 135.731C134.82 137.88 125.827 141.286 120.273 137.715C119.446 137.054 118.686 134.64 122.256 130.276L135.647 113.909C133.333 109.446 128.803 99.4278 129.2 95.0635C123.744 107.627 111.941 133.747 108.37 137.715C105.89 141.352 99.8397 146.443 95.4754 137.715C94.9795 136.062 94.2852 131.267 95.4754 125.316C93.8223 130.441 89.3257 141.385 84.5646 144.162C81.7543 145.981 75.2409 147.237 71.6701 137.715C69.6863 133.251 66.909 121.15 71.6701 108.454L59.7674 115.397C62.0818 118.869 65.1236 129.68 58.7755 145.154C55.7999 150.94 46.5753 162.909 33.4823 164.496C24.2247 166.149 7.09809 164.397 12.6527 144.162C13.8099 138.872 22.3731 125.415 47.3688 113.909C37.6152 106.966 17.4137 92.2862 14.6364 89.1122C6.37066 82.169 -4.2095 62.6288 19.5959 40.0137C43.4012 17.3986 75.8029 6.1241 89.0281 3.31375C105.89 0.172766 140.21 0.536461 142.59 27.1191C144.971 53.7017 119.115 68.9438 105.89 73.242C99.7736 75.2257 85.5565 77.7055 77.1254 77.2095C68.6944 76.7136 60.7593 74.7298 55.7999 66.2987ZM97.4592 95.0635C94.1529 107.462 86.6476 132.259 83.0768 132.259C79.506 132.259 79.2745 124.986 79.6052 121.349C79.9358 116.389 82.7792 104.288 91.5078 95.5595C93.161 93.9063 96.6656 91.4927 97.4592 95.0635ZM158.956 126.308C159.122 123.167 160.94 115.794 166.891 111.43C168.214 115.232 168.479 123.531 158.956 126.308ZM51.8323 119.861C39.103 126.804 16.3226 143.369 27.035 154.081C37.4499 154.246 56.9901 147.634 51.8323 119.861Z" stroke="#CC6699" stroke-width="0.991889"/>
</g>
</g>
<defs>
<filter id="filter0_d_1_156" x="0.536468" y="1.47412" width="227.431" height="171.927" filterUnits="userSpaceOnUse" color-interpolation-filters="sRGB">
<feFlood flood-opacity="0" result="BackgroundImageFix"/>
<feColorMatrix in="SourceAlpha" type="matrix" values="0 0 0 0 0 0 0 0 0 0 0 0 0 0 0 0 0 0 127 0" result="hardAlpha"/>
<feOffset dy="3.96756"/>
<feGaussianBlur stdDeviation="1.98378"/>
<feComposite in2="hardAlpha" operator="out"/>
<feColorMatrix type="matrix" values="0 0 0 0 0.667561 0 0 0 0 0.329297 0 0 0 0 0.874884 0 0 0 0.33 0"/>
<feBlend mode="normal" in2="BackgroundImageFix" result="effect1_dropShadow_1_156"/>
<feBlend mode="normal" in="SourceGraphic" in2="effect1_dropShadow_1_156" result="shape"/>
</filter>
<clipPath id="clip0_1_156">
<rect width="228" height="173" fill="white" transform="translate(0 0.969971)"/>
</clipPath>
</defs>
</svg>
