<svg width="200" height="201" viewBox="0 0 200 201" fill="none" xmlns="http://www.w3.org/2000/svg">
<g id="vscode.svg" clip-path="url(#clip0_1_181)">
<g id="Group" filter="url(#filter0_i_1_181)">
<path id="Vector" d="M3.05698 118.636L14.7679 134.279C15.8212 135.686 17.75 136.09 19.2347 135.215L156.364 54.3709C157.37 53.7781 157.986 52.6991 157.991 51.5201L158.169 13.7644C158.182 10.9975 155.062 9.31122 152.809 10.8677L3.79079 113.824C2.22783 114.904 1.89535 117.084 3.05698 118.636Z" fill="#2881B9"/>
</g>
<path id="Vector_2" d="M3.05698 118.636L14.7679 134.279C15.8212 135.686 17.75 136.09 19.2347 135.215L156.364 54.3709C157.37 53.7781 157.986 52.6991 157.991 51.5201L158.169 13.7644C158.182 10.9975 155.062 9.31122 152.809 10.8677L3.79079 113.824C2.22783 114.904 1.89535 117.084 3.05698 118.636Z" stroke="#267FBB" stroke-width="1.13196"/>
<path id="Vector_3" d="M7.10828 61.3908L21.3735 48.7575C22.5331 47.7305 24.2218 47.6057 25.5058 48.4722L153.271 134.699C154.202 135.327 154.746 136.364 154.75 137.488L154.952 185.943C154.965 188.852 151.553 190.429 149.345 188.535L7.095 66.4644C5.53202 65.1232 5.56642 62.7563 7.10828 61.3908Z" fill="#198BD4" stroke="#1586C8" stroke-width="1.13196"/>
<path id="Vector_4" d="M150.958 11.4856V187.959C150.958 193.125 156.496 196.399 161.022 193.91L194.981 175.235C197.151 174.042 198.5 171.761 198.5 169.284V29.4137C198.5 26.8951 197.106 24.5833 194.879 23.4075L160.92 5.47947C156.397 3.09161 150.958 6.37096 150.958 11.4856Z" fill="#42AFF2" stroke="#44AFF3" stroke-width="1.13196"/>
</g>
<defs>
<filter id="filter0_i_1_181" x="2.36328" y="10.2732" width="155.806" height="129.93" filterUnits="userSpaceOnUse" color-interpolation-filters="sRGB">
<feFlood flood-opacity="0" result="BackgroundImageFix"/>
<feBlend mode="normal" in="SourceGraphic" in2="BackgroundImageFix" result="shape"/>
<feColorMatrix in="SourceAlpha" type="matrix" values="0 0 0 0 0 0 0 0 0 0 0 0 0 0 0 0 0 0 127 0" result="hardAlpha"/>
<feOffset dy="4.52784"/>
<feGaussianBlur stdDeviation="2.26392"/>
<feComposite in2="hardAlpha" operator="arithmetic" k2="-1" k3="1"/>
<feColorMatrix type="matrix" values="0 0 0 0 0 0 0 0 0 0 0 0 0 0 0 0 0 0 0.15 0"/>
<feBlend mode="normal" in2="shape" result="effect1_innerShadow_1_181"/>
</filter>
<clipPath id="clip0_1_181">
<rect width="199" height="200" fill="white" transform="translate(0.5 0.219971)"/>
</clipPath>
</defs>
</svg>
